<svg width="128" height="128" viewBox="0 0 128 128" fill="none" xmlns="http://www.w3.org/2000/svg">
<path d="M63.9999 21.3333C49.2959 21.3333 37.3333 33.296 37.3333 48H47.9999C47.9999 39.1787 55.1786 32 63.9999 32C72.8213 32 79.9999 39.1787 79.9999 48C79.9999 53.7013 77.5786 55.8133 72.1013 60.0267C70.0639 61.5947 67.7653 63.3653 65.5626 65.5627C58.5653 72.5547 58.6399 79.4507 58.6666 80V90.6667H69.3333V79.952C69.3333 79.824 69.4559 76.7467 73.1039 73.104C74.8106 71.3973 76.7413 69.9147 78.6026 68.48C84.2559 64.128 90.6666 59.2 90.6666 48C90.6666 33.296 78.7039 21.3333 63.9999 21.3333ZM58.6666 96H69.3333V106.667H58.6666V96Z" fill="#EE0000"/>
</svg>
