<svg width="128" height="128" viewBox="0 0 128 128" fill="none" xmlns="http://www.w3.org/2000/svg">
<path d="M76.8 12.8C79.7724 12.7991 82.6864 13.6263 85.2151 15.1887C87.7438 16.7512 89.7872 18.9872 91.1163 21.646C92.4454 24.3048 93.0075 27.2813 92.7397 30.2417C92.4718 33.2021 91.3846 36.0293 89.6 38.4064L102.4 38.4C104.097 38.4 105.725 39.0743 106.925 40.2745C108.126 41.4747 108.8 43.1026 108.8 44.8V64C108.8 65.6974 108.126 67.3252 106.925 68.5255C105.725 69.7257 104.097 70.4 102.4 70.4V99.2C102.4 103.443 100.714 107.513 97.7137 110.514C94.7131 113.514 90.6434 115.2 86.4 115.2H41.6C37.3565 115.2 33.2868 113.514 30.2862 110.514C27.2857 107.513 25.6 103.443 25.6 99.2V70.4C23.9026 70.4 22.2747 69.7257 21.0745 68.5255C19.8742 67.3252 19.2 65.6974 19.2 64V44.8C19.2 43.1026 19.8742 41.4747 21.0745 40.2745C22.2747 39.0743 23.9026 38.4 25.6 38.4L38.4 38.4064C37.1393 36.7255 36.222 34.8127 35.7005 32.7773C35.1791 30.7419 35.0636 28.6237 35.3608 26.5437C35.6579 24.4636 36.3618 22.4625 37.4324 20.6545C38.5029 18.8465 39.919 17.2671 41.6 16.0064C43.2809 14.7457 45.1936 13.8284 47.2291 13.307C49.2645 12.7855 51.3827 12.6701 53.4627 12.9672C55.5427 13.2644 57.5439 13.9683 59.3518 15.0388C61.1598 16.1093 62.7393 17.5255 64 19.2064C65.4862 17.2144 67.4177 15.5976 69.6402 14.4852C71.8627 13.3729 74.3146 12.7957 76.8 12.8ZM60.8 70.4H32V99.2C32 101.746 33.0114 104.188 34.8117 105.988C36.6121 107.789 39.0539 108.8 41.6 108.8H60.8V70.4ZM96 70.4H67.2V108.8H86.4C88.946 108.8 91.3878 107.789 93.1882 105.988C94.9885 104.188 96 101.746 96 99.2V70.4ZM60.8 44.8H25.6V64H60.8V44.8ZM102.4 44.8H67.2V64H102.4V44.8ZM76.8 19.2C74.2539 19.2 71.8121 20.2114 70.0117 22.0118C68.2114 23.8121 67.2 26.2539 67.2 28.8V38.4H76.8C79.346 38.4 81.7878 37.3886 83.5882 35.5882C85.3885 33.7879 86.4 31.3461 86.4 28.8C86.4 26.2539 85.3885 23.8121 83.5882 22.0118C81.7878 20.2114 79.346 19.2 76.8 19.2ZM51.2 19.2C48.7346 19.2012 46.3641 20.1509 44.5799 21.8522C42.7956 23.5535 41.7343 25.8761 41.6158 28.3386C41.4973 30.8012 42.3308 33.2149 43.9435 35.0797C45.5562 36.9445 47.8245 38.1173 50.2784 38.3552L51.2 38.4H60.8V28.8L60.7552 27.8784C60.5261 25.503 59.4204 23.298 57.6538 21.6936C55.8873 20.0891 53.5864 19.2001 51.2 19.2Z" fill="#EE0000"/>
</svg>
