<svg width="128" height="128" viewBox="0 0 128 128" fill="none" xmlns="http://www.w3.org/2000/svg">
<path fill-rule="evenodd" clip-rule="evenodd" d="M64 106.667C87.5653 106.667 106.667 87.5653 106.667 64C106.667 40.4347 87.5653 21.3333 64 21.3333C40.4347 21.3333 21.3333 40.4347 21.3333 64C21.3333 87.5653 40.4347 106.667 64 106.667ZM64 112C90.5093 112 112 90.5093 112 64C112 37.4907 90.5093 16 64 16C37.4907 16 16 37.4907 16 64C16 90.5093 37.4907 112 64 112Z" fill="#EE0000"/>
<path fill-rule="evenodd" clip-rule="evenodd" d="M44.5202 74.6667C48.6669 84.8853 56.3069 90.6667 64.0002 90.6667C71.6962 90.6667 79.3335 84.8853 83.4802 74.6667H44.5202ZM64.0002 96C53.2322 96 43.8989 87.872 39.3122 76C39.2673 75.8855 39.2229 75.7708 39.1789 75.656C37.9895 72.48 40.5335 69.3333 43.9282 69.3333H84.0749C87.4695 69.3333 90.0162 72.48 88.8215 75.656C88.7784 75.7708 88.7349 75.8855 88.6909 76C84.1015 87.872 74.7682 96 64.0002 96Z" fill="#EE0000"/>
<path d="M56.8054 59.8453C57.152 58.8907 57.048 57.7253 56.7627 56.664C56.4192 55.4417 55.8691 54.2873 55.136 53.2507C53.5867 51.04 51.0187 49.0107 47.5494 48.8613C43.9574 48.712 41.2747 50.992 39.6214 53.4107C38.8273 54.5749 38.2032 55.8463 37.768 57.1867C37.3867 58.376 37.184 59.592 37.3174 60.5653C37.348 60.7873 37.4341 60.9979 37.5676 61.1778C37.7012 61.3576 37.8779 61.501 38.0814 61.5945C38.285 61.6881 38.5089 61.7288 38.7323 61.713C38.9558 61.6972 39.1717 61.6253 39.36 61.504C40.4267 60.8213 41.544 59.8853 42.5787 59.0213C43.048 58.6267 43.504 58.248 43.9254 57.9147C45.424 56.7307 46.592 56.056 47.5574 56.008C48.4774 55.9627 49.5387 56.488 50.8774 57.4907C51.3574 57.848 51.8214 58.2267 52.3014 58.6213L52.8214 59.0453C53.472 59.5707 54.1654 60.1093 54.864 60.5307C55.0326 60.6323 55.2215 60.6954 55.4173 60.7153C55.6131 60.7353 55.8109 60.7117 55.9965 60.6462C56.182 60.5807 56.3508 60.4749 56.4907 60.3364C56.6305 60.198 56.738 60.0302 56.8054 59.8453Z" fill="#EE0000"/>
<path d="M70.9682 59.8453C70.6215 58.8907 70.7282 57.7253 71.0135 56.664C71.3122 55.5547 71.8642 54.3627 72.6402 53.2507C74.1869 51.04 76.7575 49.0107 80.2269 48.8613C83.8162 48.712 86.5015 50.992 88.1549 53.4107C88.9922 54.6373 89.6162 55.9653 90.0082 57.1867C90.3869 58.376 90.5895 59.592 90.4562 60.5653C90.4253 60.7868 90.3393 60.997 90.2059 61.1766C90.0725 61.3561 89.8961 61.4992 89.6929 61.5927C89.4898 61.6861 89.2663 61.727 89.0432 61.7115C88.8201 61.696 88.6045 61.6247 88.4162 61.504C87.3495 60.8213 86.2295 59.8853 85.1975 59.0213C84.7255 58.6267 84.2722 58.248 83.8509 57.9147C82.3495 56.7307 81.1842 56.056 80.2162 56.008C79.2962 55.9627 78.2349 56.488 76.8989 57.4907C76.4189 57.848 75.9549 58.2267 75.4749 58.6213L74.9522 59.0453C74.3015 59.5707 73.6109 60.1093 72.9122 60.5307C72.7436 60.6328 72.5544 60.6963 72.3583 60.7165C72.1622 60.7367 71.9641 60.7132 71.7781 60.6477C71.5922 60.5821 71.4231 60.4762 71.2831 60.3374C71.143 60.1987 71.0355 60.0306 70.9682 59.8453Z" fill="#EE0000"/>
</svg>
