<svg width="128" height="128" viewBox="0 0 128 128" fill="none" xmlns="http://www.w3.org/2000/svg">
<path d="M78.5351 116.729C78.5351 123.829 72.7787 126.372 65.6782 126.372C58.5778 126.372 52.8213 123.829 52.8213 116.729L56.0356 87.8009C56.0356 80.704 58.5778 81.3724 65.6782 81.3724C72.7787 81.3724 75.3209 80.704 75.3209 87.8009L78.5351 116.729Z" fill="#662113"/>
<path d="M108.764 98.4C86.3858 79.2284 77.3227 51.7795 65.6782 51.7795C54.0338 51.7795 44.9707 79.232 22.592 98.4C13.1876 106.457 17.6676 111.118 30.56 110.183C42.0516 109.355 52.8 106.748 65.6782 106.748C78.5565 106.748 89.3085 109.355 100.793 110.183C113.689 111.118 118.165 106.453 108.764 98.4Z" fill="#5C913B"/>
<path d="M101.497 90.8018C84.2987 75.0329 74.6347 52.448 65.6782 52.448C56.7289 52.448 47.0613 75.0329 29.8631 90.8018C16.1956 103.332 47.7724 106.144 65.6782 90.8018C83.5769 106.148 115.161 103.332 101.497 90.8018Z" fill="#3E721D"/>
<path d="M101.497 78.0267C84.2987 63.296 74.6347 42.1973 65.6782 42.1973C56.7289 42.1973 47.0613 63.296 29.8631 78.0267C16.1956 89.7316 47.7724 92.3591 65.6782 78.0267C83.5769 92.3627 115.161 89.7316 101.497 78.0267Z" fill="#5C913B"/>
<path d="M93.6391 67.5662C80.2169 56.064 72.672 39.5911 65.6782 39.5911C58.6916 39.5911 51.1431 56.0605 37.7173 67.5662C27.0507 76.704 51.6978 78.7556 65.6782 67.5662C79.6516 78.752 104.309 76.704 93.6391 67.5662Z" fill="#3E721D"/>
<path d="M93.6391 57.9947C80.2169 46.4925 72.672 30.0231 65.6782 30.0231C58.6916 30.0231 51.1431 46.4925 37.7173 57.9947C27.0507 67.136 51.6978 69.184 65.6782 57.9947C79.6516 69.184 104.309 67.136 93.6391 57.9947Z" fill="#5C913B"/>
<path d="M88.2418 49.4933C77.408 40.2134 71.3173 26.9191 65.6747 26.9191C60.0356 26.9191 53.9449 40.2134 43.1076 49.4933C34.496 56.8711 54.3929 58.5245 65.6747 49.4933C76.96 58.5245 96.8569 56.8711 88.2418 49.4933Z" fill="#3E721D"/>
<path d="M88.2418 42.2898C77.408 33.0098 71.3173 19.7156 65.6747 19.7156C60.0356 19.7156 53.9449 33.0098 43.1076 42.2898C34.496 49.6676 54.3929 51.3209 65.6747 42.2898C76.96 51.3209 96.8569 49.6676 88.2418 42.2898Z" fill="#5C913B"/>
<path d="M82.848 31.6835C74.6062 24.6222 69.9733 14.5067 65.6782 14.5067C61.3867 14.5067 56.7502 24.6222 48.5049 31.6835C41.952 37.2978 57.0916 38.5564 65.6782 31.6835C74.2613 38.5564 89.4044 37.2978 82.848 31.6835Z" fill="#3E721D"/>
<path d="M82.848 27.8471C74.6062 20.7822 69.9733 10.6667 65.6782 10.6667C61.3867 10.6667 56.7502 20.7822 48.5049 27.8471C41.952 33.4614 57.0916 34.72 65.6782 27.8471C74.2613 34.7165 89.4044 33.4578 82.848 27.8471Z" fill="#5C913B"/>
<path d="M58.6667 48.1493C61.6122 48.1493 64 45.7615 64 42.816C64 39.8705 61.6122 37.4827 58.6667 37.4827C55.7211 37.4827 53.3333 39.8705 53.3333 42.816C53.3333 45.7615 55.7211 48.1493 58.6667 48.1493Z" fill="#FFCC4D"/>
<path d="M71.1111 96C75.0385 96 78.2222 92.8162 78.2222 88.8889C78.2222 84.9615 75.0385 81.7778 71.1111 81.7778C67.1838 81.7778 64 84.9615 64 88.8889C64 92.8162 67.1838 96 71.1111 96Z" fill="#FFCC4D"/>
<path d="M80 64C84.9092 64 88.8889 60.0203 88.8889 55.1111C88.8889 50.2019 84.9092 46.2222 80 46.2222C75.0908 46.2222 71.1111 50.2019 71.1111 55.1111C71.1111 60.0203 75.0908 64 80 64Z" fill="#DD2E44"/>
<path d="M35.5556 99.5555C39.4829 99.5555 42.6667 96.3718 42.6667 92.4444C42.6667 88.5171 39.4829 85.3333 35.5556 85.3333C31.6282 85.3333 28.4444 88.5171 28.4444 92.4444C28.4444 96.3718 31.6282 99.5555 35.5556 99.5555Z" fill="#DD2E44"/>
<path d="M49.7778 74.6667C53.7051 74.6667 56.8889 71.4829 56.8889 67.5556C56.8889 63.6282 53.7051 60.4445 49.7778 60.4445C45.8504 60.4445 42.6667 63.6282 42.6667 67.5556C42.6667 71.4829 45.8504 74.6667 49.7778 74.6667Z" fill="#A6D388"/>
<path d="M92.4444 88.8889C96.3718 88.8889 99.5556 85.7051 99.5556 81.7778C99.5556 77.8504 96.3718 74.6667 92.4444 74.6667C88.5171 74.6667 85.3333 77.8504 85.3333 81.7778C85.3333 85.7051 88.5171 88.8889 92.4444 88.8889Z" fill="#A6D388"/>
<path d="M68.9031 5.96977C69.4115 6.94755 70.7235 7.92177 71.808 8.1351L76.7111 9.09155C77.7956 9.30488 78.0515 10.1227 77.2764 10.912L73.7813 14.4818C73.0098 15.2711 72.4835 16.8178 72.6222 17.9129L73.2267 22.8693C73.3618 23.968 72.6613 24.4622 71.6693 23.9715L67.2 21.7493C66.208 21.2587 64.576 21.2373 63.5733 21.7031L59.0436 23.8151C58.0409 24.2773 57.3511 23.7653 57.5147 22.6702L58.2436 17.728C58.4036 16.6364 57.92 15.0791 57.1698 14.2684L53.76 10.6169C53.0062 9.80977 53.28 8.99199 54.3715 8.81066L59.296 7.97866C60.3875 7.79733 61.7173 6.8551 62.2542 5.88799L64.6756 1.51822C65.2124 0.551104 66.0764 0.561771 66.5849 1.53955L68.9031 5.96977Z" fill="#FFAC33"/>
</svg>
